<?xml version="1.0" encoding="UTF-8" standalone="no"?>
<!-- Created with Inkscape (http://www.inkscape.org/) -->

<svg
   xmlns:dc="http://purl.org/dc/elements/1.1/"
   xmlns:cc="http://creativecommons.org/ns#"
   xmlns:rdf="http://www.w3.org/1999/02/22-rdf-syntax-ns#"
   xmlns:svg="http://www.w3.org/2000/svg"
   xmlns="http://www.w3.org/2000/svg"
   xmlns:sodipodi="http://sodipodi.sourceforge.net/DTD/sodipodi-0.dtd"
   xmlns:inkscape="http://www.inkscape.org/namespaces/inkscape"
   id="svg5263"
   version="1.1"
   inkscape:version="0.48.4 r9939"
   width="180"
   height="180"
   xml:space="preserve"
   sodipodi:docname="bitbucket_rgb_blue.eps"><metadata
     id="metadata5269"><rdf:RDF><cc:Work
         rdf:about=""><dc:format>image/svg+xml</dc:format><dc:type
           rdf:resource="http://purl.org/dc/dcmitype/StillImage" /><dc:title></dc:title></cc:Work></rdf:RDF></metadata><defs
     id="defs5267" /><sodipodi:namedview
     pagecolor="#ffffff"
     bordercolor="#666666"
     borderopacity="1"
     objecttolerance="10"
     gridtolerance="10"
     guidetolerance="10"
     inkscape:pageopacity="0"
     inkscape:pageshadow="2"
     inkscape:window-width="1240"
     inkscape:window-height="876"
     id="namedview5265"
     showgrid="false"
     inkscape:zoom="1.4063794"
     inkscape:cx="190.19395"
     inkscape:cy="78.91047"
     inkscape:window-x="1366"
     inkscape:window-y="24"
     inkscape:window-maximized="1"
     inkscape:current-layer="g5271" /><g
     id="g5271"
     inkscape:groupmode="layer"
     inkscape:label="ink_ext_XXXXXX"
     transform="matrix(1.25,0,0,-1.25,0,179.99999)"><path
       inkscape:connector-curvature="0"
       id="path5295"
       style="fill:#2a4c84;fill-opacity:1;fill-rule:nonzero;stroke:none"
       d="m 71.9605,116.25799 c -21.6355,0.035 -39.1695,3.794 -39.1621,8.399 0.0075,4.604 17.5539,8.307 39.1895,8.272 21.6359,-0.035 39.1691,-3.793 39.1621,-8.399 -0.008,-4.604 -17.5535,-8.306 -39.1895,-8.272 z m 0.011,-60.959998 c -10.7395,0 -19.4453,8.7071 -19.4453,19.4454 0,10.7402 8.7058,19.4453 19.4453,19.4453 10.739,0 19.4453,-8.7051 19.4453,-19.4453 0,-10.7383 -8.7063,-19.4454 -19.4453,-19.4454 z m 4e-4,87.526998 0,-0.002 -8e-4,0.002 c -33.6746,0 -61.1711,-9.053 -61.1711,-20.294 0,-2.961 7.34336,-45.414598 10.2563,-62.250498 1.3062,-7.5508 20.8183,-18.6215 50.8996,-18.6215 l 0.0312,0.0898 0,-0.0898 c 30.0809,0 49.5929,11.0707 50.8989,18.6215 2.913,16.8359 10.257,59.289498 10.257,62.250498 0,11.241 -27.4969,20.294 -61.1711,20.294" /><path
       inkscape:connector-curvature="0"
       id="path5297"
       style="fill:#2a4c84;fill-opacity:1;fill-rule:nonzero;stroke:none"
       d="m 115.937,43.406592 c -0.93,0 -1.675,-0.6586 -1.675,-0.6586 0,0 -15.064,-11.9281 -42.2905,-11.9289 -27.2266,8e-4 -42.2906,11.9289 -42.2906,11.9289 0,0 -0.7457,0.6586 -1.6754,0.6586 -1.111,0 -2.1641,-0.7464 -2.1641,-2.3925 0,-0.1743 0.0172,-0.3481 0.0488,-0.518 2.3379,-12.5133 4.0465,-21.3922 4.3461,-22.7441 2.041,-9.20512 20.0481,-16.1508281 41.7336,-16.152 l 0.0028,0 0,0 c 21.6859,0.00117 39.6923,6.94688 41.7333,16.152 0.3,1.3519 2.008,10.2308 4.346,22.7441 0.032,0.1699 0.049,0.3437 0.049,0.518 0,1.6461 -1.053,2.3925 -2.164,2.3925" /><path
       inkscape:connector-curvature="0"
       id="path5299"
       style="fill:#2a4c84;fill-opacity:1;fill-rule:nonzero;stroke:none"
       d="m 81.6977,74.749192 c 0,-5.3828 -4.3629,-9.7449 -9.7454,-9.7449 -5.3824,0 -9.7453,4.3621 -9.7453,9.7449 0,5.3828 4.3629,9.7453 9.7453,9.7453 5.3825,0 9.7454,-4.3625 9.7454,-9.7453" /></g></svg>