<svg version="1.1" xmlns="http://www.w3.org/2000/svg" width="634.531px" height="557.67px" viewBox="0 0 634.531 557.67">
	<path fill="#9CDAF1" d="M497.851,495.339c0,34.426-79.74,62.331-178.093,62.331c-98.369,0-178.11-27.905-178.11-62.331 c0-34.427,79.738-62.338,178.11-62.338C418.11,433.001,497.851,460.917,497.851,495.339z" />
	<path fill="#7DBBE6" d="M271.353,555.346v-44.432c0-5.737-1.038-10.535-2.771-14.588c11.489,8.923,12.266,31.345,12.266,31.345 v28.51c10.339,0.808,21.016,1.296,31.945,1.443l-0.288-28.369c-1.583-38.78-34.822-43.527-34.822-43.527 c-12.147-2.758-11.967,3.339-10.746,7.277c-11.917-20.324-43.857-17.699-43.857-17.699c-11.084,3.952-0.796,11.078-0.796,11.078 c17.416,6.329,18.997,25.325,18.997,25.325v39.605c9.59,1.644,19.634,3.001,30.079,4.023L271.353,555.346z" />
	<path fill="#7DBBE6" d="M411.437,475.303c0,0-31.944-2.626-43.86,17.703c1.221-3.938,1.405-10.041-10.744-7.281 c0,0-33.237,4.748-34.819,43.527l-0.293,28.412c10.913-0.041,21.59-0.426,31.946-1.125v-28.87c0,0,0.78-22.422,12.267-31.345 c-1.732,4.053-2.771,8.85-2.771,14.589v44.892c10.419-0.912,20.474-2.145,30.074-3.668v-40.429c0,0,1.583-18.997,18.995-25.326 c0-0.017,10.278-7.143-0.805-11.1L411.437,475.303z" />
	<path d="M634.062,236.95l0.469-2.328c-52.246-10.447-105.863-10.553-138.301-9.205c5.327-19.199,6.932-41.291,6.932-65.926 c0-35.332-13.273-63.599-34.825-85.105c3.767-12.155,8.796-39.149-5.021-73.71c0,0-24.382-7.741-79.525,29.167 c-21.603-5.397-44.592-8.063-67.616-8.063c-25.332,0-50.93,3.226-74.803,9.773c-56.905-38.82-82.026-30.868-82.026-30.868 c-16.398,41.007-6.259,71.367-3.179,78.908c-19.273,20.8-31.04,47.354-31.04,79.906c0,24.576,2.798,46.625,9.632,65.787 c-32.713-1.19-84.374-0.732-134.757,9.342l0.463,2.329c50.687-10.137,102.673-10.489,135.187-9.259 c1.505,3.967,3.184,7.814,5.065,11.534c-32.153,1.035-87.055,5.134-139.67,19.978l0.649,2.279 c53.031-14.951,108.409-18.947,140.25-19.922c19.211,35.811,57.086,58.938,124.467,66.2c-9.563,6.428-19.32,17.353-23.273,35.837 c-13.032,6.233-54.288,21.449-79.041-21.124c0,0-13.855-25.333-40.377-27.315c0,0-25.726-0.395-1.775,16.032 c0,0,17.214,8.11,29.091,38.595c0,0,15.494,51.993,90.263,35.312v53.707c0,0-1.581,18.996-18.997,25.325 c0,0-10.29,7.124,0.796,11.076c0,0,48.274,3.959,48.274-35.608V381.04c0,0-1.915-23.226,9.494-31.298v96.189 c0,0-0.788,22.95-12.66,31.657c0,0-7.919,14.241,9.495,10.289c0,0,33.237-4.748,34.822-43.527l0.753-97.346h7.989l0.76,97.346 c1.58,38.779,34.82,43.527,34.82,43.527c17.408,3.952,9.494-10.289,9.494-10.289c-11.87-8.707-12.66-31.657-12.66-31.657v-95.36 c11.403,8.88,9.495,30.467,9.495,30.467v58.562c0,39.569,48.274,35.608,48.274,35.608c11.077-3.951,0.796-11.075,0.796-11.075 c-17.414-6.33-18.996-25.326-18.996-25.326v-76.767c0-29.936-12.604-45.788-24.933-54.156 c71.859-7.126,106.344-30.328,122.233-66.38c31.476,0.865,88.119,4.7,142.301,19.983l0.646-2.279 c-53.873-15.195-110.144-19.127-141.938-20.053c1.507-3.644,2.82-7.431,3.988-11.326c32.275-1.342,86.146-1.324,138.592,9.154 L634.062,236.95z" />
	<path fill="#F4CBB2" d="M432.881,157.833c15.478,14.021,24.53,30.954,24.53,49.197c0,85.181-63.498,87.489-141.819,87.489 c-78.334,0-141.825-11.796-141.825-87.489c0-18.123,8.926-34.949,24.212-48.914c25.499-23.273,68.652-10.95,117.612-10.95 c48.74-0.007,91.746-12.456,117.281,10.658L432.881,157.833z" />
	<path fill="#FFFFFF" d="M268.418,211.364c0,23.463-13.212,42.479-29.509,42.479c-16.297,0-29.509-19.018-29.509-42.479 c0-23.459,13.212-42.47,29.509-42.47C255.207,168.912,268.418,187.909,268.418,211.364z M426.745,211.364 c0,23.463-13.212,42.479-29.51,42.479c-16.297,0-29.51-19.018-29.51-42.479c0-23.459,13.213-42.47,29.51-42.47 C413.533,168.912,426.745,187.909,426.745,211.364z" />
	<path fill="#AD5C51" d="M258.962,211.901c0,15.64-8.819,28.312-19.674,28.312s-19.672-12.674-19.672-28.312 c0-15.646,8.811-28.325,19.672-28.325c10.848,0,19.667,12.675,19.667,28.317L258.962,211.901z M417.271,211.901 c0,15.64-8.818,28.312-19.674,28.312c-10.854,0-19.672-12.674-19.672-28.312c0-15.646,8.811-28.325,19.672-28.325 c10.85,0,19.668,12.675,19.668,28.317L417.271,211.901z" />
	<circle fill="#AD5C51" cx="316.036" cy="249.089" r="7.379" />
	<path fill="#AD5C51" d="M298.816,267.751c-0.436-1.238,0.215-2.591,1.444-3.027c1.235-0.436,2.592,0.216,3.025,1.443 c1.901,5.363,6.987,8.964,12.661,8.964c5.674,0,10.759-3.6,12.661-8.964c0.436-1.236,1.789-1.879,3.025-1.443 c1.237,0.438,1.879,1.789,1.445,3.027c-2.562,7.25-9.455,12.12-17.132,12.12c-7.678,0-14.554-4.846-17.119-12.105L298.816,267.751z" />
	<path fill="#C3E4D8" d="M135.194,301.501c0,1.969-2.307,3.559-5.147,3.559c-2.838,0-5.147-1.59-5.147-3.559 c0-1.97,2.309-3.565,5.147-3.565c2.84,0,5.147,1.594,5.147,3.571V301.501z M149.445,309.415c0,1.969-2.307,3.558-5.147,3.558 c-2.839,0-5.147-1.589-5.147-3.558c0-1.97,2.309-3.566,5.147-3.566c2.84,0,5.147,1.594,5.147,3.571V309.415z M158.152,319.71 c0,1.968-2.307,3.558-5.147,3.558c-2.838,0-5.147-1.59-5.147-3.558c0-1.971,2.309-3.565,5.147-3.565c2.84,0,5.147,1.593,5.147,3.57 V319.71z M166.066,331.58c0,1.969-2.307,3.559-5.147,3.559c-2.838,0-5.147-1.59-5.147-3.559c0-1.97,2.309-3.566,5.147-3.566 c2.84,0,5.147,1.595,5.147,3.571V331.58z M174.765,342.663c0,1.969-2.307,3.558-5.147,3.558c-2.838,0-5.147-1.589-5.147-3.558 c0-1.97,2.309-3.566,5.147-3.566c2.84,0,5.147,1.594,5.147,3.571V342.663z M186.652,352.152c0,1.969-2.307,3.559-5.147,3.559 c-2.838,0-5.147-1.59-5.147-3.559c0-1.971,2.309-3.565,5.147-3.565c2.84,0,5.147,1.593,5.147,3.571V352.152z M203.268,358.49 c0,1.969-2.307,3.559-5.147,3.559c-2.838,0-5.147-1.59-5.147-3.559c0-1.971,2.309-3.565,5.147-3.565c2.84,0,5.147,1.593,5.147,3.571 V358.49z M219.816,358.49c0,1.969-2.307,3.559-5.147,3.559c-2.838,0-5.147-1.59-5.147-3.559c0-1.971,2.309-3.565,5.147-3.565 c2.84,0,5.147,1.593,5.147,3.571V358.49z M236.599,355.741c0,1.968-2.307,3.558-5.147,3.558c-2.838,0-5.147-1.59-5.147-3.558 c0-1.972,2.309-3.566,5.147-3.566c2.84,0,5.147,1.593,5.147,3.571V355.741z" />
	<path fill="#9CDAF1" d="M116.295,312.064l-5.141,17.91c0,0-1.341,6.475,4.762,7.622c6.371-0.124,5.845-6.081,5.404-8.016 L116.295,312.064z" />
</svg>