<?xml version="1.0" encoding="iso-8859-1"?>
<!-- Generator: Adobe Illustrator 17.1.0, SVG Export Plug-In . SVG Version: 6.00 Build 0)  -->
<!DOCTYPE svg PUBLIC "-//W3C//DTD SVG 1.1//EN" "http://www.w3.org/Graphics/SVG/1.1/DTD/svg11.dtd">
<svg version="1.1" id="Capa_1" xmlns="http://www.w3.org/2000/svg" xmlns:xlink="http://www.w3.org/1999/xlink" x="0px" y="0px"
	 viewBox="0 0 100 100" style="enable-background:new 0 0 100 100;" xml:space="preserve">
<g>
	<path d="M77.89,68.805c-8.22,5.431-17.53,8.146-27.932,8.146c-10.402,0-19.695-2.715-27.877-8.146l-0.991,0.494l-0.33,0.882
		c1.174,7.192,2.22,12.549,3.137,16.071c0.734,1.284,1.688,2.412,2.862,3.384c1.174,0.972,2.513,1.772,4.018,2.395
		c1.504,0.623,2.908,1.118,4.21,1.486c1.302,0.368,2.798,0.697,4.486,0.991c3.779,0.623,7.476,0.963,11.09,1.019
		c3.614,0.054,7.32-0.35,11.118-1.213c3.798-0.862,7.274-2.174,10.43-3.934c1.321-0.735,2.385-1.772,3.192-3.109
		c0.807-1.342,1.329-2.623,1.568-3.853c0.238-1.23,0.496-2.769,0.771-4.625c0.275-1.851,0.559-3.255,0.853-4.21
		c0-0.331,0.146-1.008,0.44-2.036c0.293-1.028,0.385-1.853,0.275-2.477C79.101,69.447,78.66,69.024,77.89,68.805z"/>
	<path d="M13.742,35.422c0.385,2.257,0.899,5.22,1.541,8.89c0.641,3.67,1.128,6.422,1.458,8.256
		c0.073,0.329,0.174,0.974,0.303,1.926c0.128,0.955,0.238,1.679,0.33,2.174c0.091,0.495,0.256,1.12,0.496,1.87
		c0.238,0.755,0.55,1.395,0.935,1.926c0.385,0.533,0.853,1.019,1.404,1.46c5.357,4.111,12.585,6.658,21.685,7.649
		c13.135,1.395,24.327-0.219,33.573-4.844c1.211-0.621,2.21-1.191,3-1.705c0.789-0.514,1.587-1.247,2.394-2.201
		c0.807-0.952,1.302-1.982,1.486-3.083c3.118-17.905,5.155-29.921,6.109-36.05c0.22-0.843,0.321-1.834,0.303-2.971
		c-0.019-1.137-0.322-2.072-0.908-2.808c-2.202-2.789-6.146-5.024-11.833-6.714c-10.897-3.193-23.3-4.109-37.206-2.752
		c-6.899,0.66-12.641,1.836-17.227,3.522c-1.101,0.404-1.981,0.744-2.642,1.019c-0.66,0.275-1.505,0.688-2.532,1.238
		c-1.028,0.55-1.853,1.101-2.477,1.651c-0.624,0.55-1.202,1.238-1.734,2.064c-0.532,0.826-0.853,1.716-0.963,2.67
		c0.33,2.64,0.734,5.54,1.211,8.694C12.925,30.46,13.357,33.167,13.742,35.422z M59.452,56.696c-2.238,2.789-5.027,4.33-8.366,4.622
		c-3.377,0.294-6.412-0.733-9.109-3.081c-2.697-2.348-4.119-5.192-4.266-8.531c-0.11-2.533,0.523-4.908,1.899-7.129
		c1.376-2.219,3.22-3.842,5.531-4.87c3.596-1.615,7.21-1.376,10.843,0.716c3.633,2.09,5.705,5.1,6.219,9.025
		C62.607,50.825,61.69,53.908,59.452,56.696z M27.364,15.252c1.174-0.624,2.182-1.028,3.027-1.21
		c0.844-0.183,2.054-0.402,3.632-0.66c10.09-1.797,20.475-1.834,31.152-0.112c1.797,0.295,3.1,0.525,3.908,0.688
		c0.807,0.166,1.871,0.57,3.192,1.213c1.321,0.643,2.348,1.458,3.082,2.449c-1.064,1.064-2.44,1.918-4.128,2.558
		c-1.688,0.643-3.018,1.038-3.99,1.185c-0.973,0.146-2.614,0.368-4.926,0.66c-8.073,1.028-16.292,1.008-24.658-0.056
		c-2.202-0.256-3.807-0.467-4.816-0.632c-1.01-0.166-2.358-0.568-4.045-1.21c-1.688-0.643-3.082-1.477-4.182-2.505
		C25.273,16.666,26.189,15.875,27.364,15.252z"/>
	<path d="M54.581,44.891c-1.009-1.084-2.183-1.735-3.522-1.954c-1.34-0.221-2.669,0-3.99,0.66c-1.395,0.623-2.349,1.69-2.862,3.193
		c-0.514,1.505-0.505,3.01,0.028,4.513c0.531,1.505,1.514,2.569,2.945,3.193c1.944,1.174,3.99,1.064,6.137-0.331
		c2.146-1.393,3.073-3.246,2.779-5.558C56.094,47.213,55.59,45.974,54.581,44.891z"/>
</g>
</svg>
