<?xml version="1.0" encoding="utf-8"?>
<!-- Generator: Adobe Illustrator 16.0.3, SVG Export Plug-In . SVG Version: 6.00 Build 0)  -->
<!DOCTYPE svg PUBLIC "-//W3C//DTD SVG 1.1//EN" "http://www.w3.org/Graphics/SVG/1.1/DTD/svg11.dtd">
<svg version="1.1" id="Layer_1" xmlns="http://www.w3.org/2000/svg" xmlns:xlink="http://www.w3.org/1999/xlink" x="0px" y="0px"
	 width="334.137px" height="116.064px" viewBox="0 0 334.137 116.064" enable-background="new 0 0 334.137 116.064"
	 xml:space="preserve">
<g>
	<g>
		<rect x="54.876" y="41.108" fill="#F58120" width="6.679" height="20.672"/>
		<rect x="67.916" y="41.108" fill="#F58120" width="6.678" height="20.672"/>
		<path fill="#F58120" d="M304.755,48.828h-40.775v8.033h40.775c15.959,0,19.23,7.688,19.23,19.23v6.572
			c0,15.909-7.096,23.004-23.004,23.004H30.29c-18.958,0-20.326-7.68-20.326-20.326V69.763c0-10.732,2.778-13.511,13.51-13.511
			H36.64v0.517v14.322l4.468,0.264c11.936,0.701,17.76,6.527,24.503,13.273c7.137,7.139,15.217,15.212,30.893,15.441v0.03h10.224
			V2.789h-9.543l0,0c-0.009,0-0.016,0-0.023,0h-0.657V2.8c-16.101,0.223-24.642,8.302-32.186,15.446
			c-6.479,6.137-12.6,11.934-23.52,13.298l-4.158,0.52v14.037v2.117H23.475c-15.101,0-21.543,6.443-21.543,21.544v15.579
			c0,13.721,2.191,28.359,28.359,28.359h270.691c20.305,0,31.037-10.733,31.037-31.037V75.95
			C332.017,69.069,331.831,48.828,304.755,48.828z M46.133,56.769v-4.189V50.29v-4.188v-5.857
			c11.477-2.568,18.469-9.191,24.713-15.105c6.051-5.731,11.43-10.801,20.391-12.356c1.629-0.283,3.375-0.452,5.266-0.486v78.275
			c-1.921-0.037-3.687-0.219-5.32-0.532c-8.328-1.601-13.284-6.547-18.857-12.124C65.951,71.54,58.812,64.398,46.133,62.36V56.769z"
			/>
	</g>
	<polygon points="216.755,15.174 216.755,25.155 239.151,25.155 239.151,87.715 249.13,87.715 249.13,25.155 271.526,25.155 
		271.526,15.174 	"/>
	<polygon points="151.76,25.155 151.76,15.174 106.727,15.174 106.727,14.961 96.503,14.961 96.503,87.441 96.989,87.441 
		96.989,87.715 151.76,87.715 151.76,77.734 106.727,77.734 106.727,56.435 132.042,56.435 132.042,46.455 106.727,46.455 
		106.727,25.155 	"/>
	<g>
		<polygon points="222.567,56.375 222.567,46.395 196.659,46.395 196.556,46.337 196.524,46.395 196.521,46.395 196.521,46.401 
			184.499,68.092 172.442,46.337 172.34,46.395 146.405,46.395 146.405,56.375 166.597,56.375 183.804,87.393 183.806,87.389 
			185.192,87.389 185.194,87.393 185.196,87.389 185.21,87.389 185.21,87.365 202.401,56.375 		"/>
	</g>
</g>
</svg>
