<?xml version="1.0" encoding="UTF-8" standalone="no"?>
<!-- Created with Inkscape (http://www.inkscape.org/) -->
<svg
   xmlns:svg="http://www.w3.org/2000/svg"
   xmlns="http://www.w3.org/2000/svg"
   version="1.0"
   width="744.09448"
   height="467.71652"
   id="svg7217">
  <defs
     id="defs7219" />
  <g
     transform="translate(-572.00661,572.04167)"
     id="layer1">
    <g
       transform="translate(17.719116,17.733261)"
       id="g7496">
      <path
         d="M 594.10036,-219.41667 C 588.38908,-219.2375 583.29784,-215.86529 581.94411,-209.66667 L 572.00661,-140.60417 L 593.60036,-140.60417 L 599.38161,-188.07292 L 621.10036,-149.85417 C 627.67196,-141.53909 641.88813,-142.34375 646.85036,-149.85417 L 668.44411,-187.26042 L 674.35036,-140.60417 L 696.72536,-140.60417 L 685.88161,-209.66667 C 677.56649,-222.94403 665.07821,-219.57421 658.50661,-212.19792 L 634.38161,-170.63542 L 608.47536,-212.19792 C 604.64051,-217.22721 599.13973,-219.57476 594.10036,-219.41667 z "
         style="fill:#231f20;fill-rule:evenodd;stroke:none"
         id="path7491" />
      <path
         d="M 355.125,371.5 C 346.80986,371.5 337.6875,378.20833 337.6875,385.71875 L 337.6875,417.21875 C 337.68751,424.72916 344.41145,431.4375 353.53125,431.4375 L 378.46875,431.4375 L 401.8125,431.4375 C 409.18881,431.43751 418.4375,425.53384 418.4375,417.21875 L 418.4375,387.3125 C 418.4375,379.80209 410.12108,371.5 400.0625,371.5 L 378.46875,371.5 L 355.125,371.5 z M 366,387.3125 L 378.46875,387.3125 L 391.75,387.3125 C 395.90752,387.31251 398.46875,390.67836 398.46875,394.03125 L 398.46875,410.65625 C 398.46874,414.6797 395.91536,415.625 392.5625,415.625 L 378.46875,415.625 L 363.4375,415.625 C 360.08466,415.625 357.6875,414.67969 357.6875,410.65625 L 357.6875,394.03125 C 357.68749,389.8737 361.84243,387.3125 366,387.3125 z "
         transform="translate(572.00661,-572.04167)"
         style="fill:#231f20;fill-rule:evenodd;stroke:none"
         id="path7489" />
      <path
         d="M 755.75661,-199.72917 C 746.63682,-199.72918 737.50661,-191.41147 737.50661,-185.51042 L 737.50661,-153.19792 C 737.50661,-148.90629 744.19932,-140.60417 753.31911,-140.60417 L 804.03786,-140.60417 C 809.93887,-139.7995 814.06911,-143.95312 814.06911,-149.85417 L 814.06911,-156.41667 L 763.25661,-156.41667 C 758.29437,-155.61201 755.75661,-159.76694 755.75661,-164.72917 L 755.75661,-174.79167 C 755.75661,-178.94923 759.09905,-183.91667 763.25661,-183.91667 L 813.13161,-183.91667 L 813.13161,-192.22917 C 813.1316,-197.1914 809.93887,-199.72917 804.03786,-199.72917 L 755.75661,-199.72917 z "
         style="fill:#231f20;fill-rule:evenodd;stroke:none"
         id="path7487" />
      <path
         d="M 252,372.3125 L 252,431.4375 L 269.4375,431.4375 L 270.375,416.4375 L 290.21875,416.4375 L 302.6875,416.4375 C 306.04037,416.4375 308.60154,418.02993 309.40625,422.1875 L 309.40625,431.4375 L 326.84375,431.4375 L 326.84375,417.21875 C 326.84376,409.70832 319.3125,408.125 319.3125,408.125 C 319.3125,408.12501 326.85155,404.76694 327.65625,399 L 327.65625,384.78125 C 326.85154,378.20963 321.05602,373.25129 316.09375,372.3125 L 290.21875,372.3125 L 252,372.3125 z M 270.375,387.3125 L 290.21875,387.3125 L 306.0625,387.3125 C 307.80598,387.31251 310.21875,389.86721 310.21875,392.28125 L 310.21875,397.25 C 310.21874,399.79816 308.60286,401.40625 305.25,401.40625 L 290.21875,401.40625 L 269.4375,401.40625 L 270.375,387.3125 z "
         transform="translate(572.00661,-572.04167)"
         style="fill:#231f20;fill-rule:evenodd;stroke:none"
         id="path7485" />
      <path
         d="M 1017.8191,-199.72917 C 1008.6993,-199.72918 999.56911,-192.21617 999.56911,-185.51042 L 999.56911,-153.19792 C 1000.3737,-148.10159 1006.1277,-140.60417 1015.3816,-140.60417 L 1066.0691,-139.79167 C 1071.836,-139.79166 1076.0066,-143.95312 1076.0066,-149.85417 L 1076.0066,-155.60417 L 1025.3191,-155.60417 C 1020.3568,-155.60417 1017.8191,-158.95445 1017.8191,-163.91667 L 1017.8191,-174.79167 C 1017.8191,-178.94923 1021.1615,-183.91667 1025.3191,-183.91667 L 1075.1941,-183.91667 L 1075.1941,-192.22917 C 1075.1941,-197.1914 1071.836,-199.72917 1066.0691,-199.72917 L 1017.8191,-199.72917 z "
         style="fill:#231f20;fill-rule:evenodd;stroke:none"
         id="path7483" />
      <path
         d="M 1086.0691,-199.72917 L 1086.0691,-140.60417 L 1105.2566,-140.60417 L 1105.2566,-162.32292 L 1140.9129,-162.32292 L 1140.9129,-140.60417 L 1160.9129,-140.60417 L 1160.9129,-199.72917 L 1140.9129,-199.72917 L 1140.9129,-178.94792 L 1105.2566,-178.94792 L 1105.2566,-199.72917 L 1086.0691,-199.72917 z "
         style="fill:#231f20;fill-rule:evenodd;stroke:none"
         id="path7481" />
      <path
         d="M 706.78786,-198.79167 L 706.78786,-140.60417 L 725.85036,-140.60417 L 725.85036,-198.79167 L 706.78786,-198.79167 z "
         style="fill:#231f20;fill-rule:evenodd;stroke:none"
         id="path7479" />
      <path
         d="M 1171.7566,-198.79167 L 1171.7566,-140.60417 L 1190.8191,-140.60417 L 1190.8191,-198.79167 L 1171.7566,-198.79167 z "
         style="fill:#231f20;fill-rule:evenodd;stroke:none"
         id="path7477" />
      <path
         d="M 631.28125,373.25 L 631.28125,431.4375 L 649.65625,431.4375 L 649.65625,416.4375 L 669.625,416.4375 L 695.375,416.4375 C 701.14189,416.4375 708.65625,408.91535 708.65625,402.34375 L 708.65625,388.125 C 708.65623,380.61458 702.09635,373.25 693.78125,373.25 L 669.625,373.25 L 631.28125,373.25 z M 648.84375,387.3125 L 669.625,387.3125 L 686.25,387.3125 C 688.79819,387.31251 690.40625,389.86721 690.40625,392.28125 L 690.40625,397.25 C 690.40613,399.79816 688.82165,402.34375 685.46875,402.34375 L 669.625,402.34375 L 649.65625,402.34375 L 648.84375,387.3125 z "
         transform="translate(572.00661,-572.04167)"
         style="fill:#231f20;fill-rule:evenodd;stroke:none"
         id="path7475" />
      <path
         d="M 909.70709,-322.72269 C 909.70709,-322.72269 922.98444,-299.38676 938.00529,-322.72269 L 967.10815,-365.10288 L 881.40893,-502.168 C 881.40893,-502.168 868.13157,-520.54166 852.30606,-502.168 L 822.39853,-460.72656 L 909.70709,-322.72269 z M 921.37507,-256.2018 C 966.30345,-256.2018 1007.0743,-272.83201 1036.9818,-299.38676 L 934.65243,-459.78778 L 966.30345,-503.10678 C 979.5808,-520.54166 993.66282,-503.10678 993.66282,-503.10678 L 1081.1055,-365.10288 C 1085.2631,-376.77086 1087.6771,-390.04818 1088.4818,-402.52087 L 989.50526,-558.76432 C 968.71752,-567.07944 945.51571,-572.04167 921.37507,-572.04167 C 834.33471,-572.04167 753.32952,-505.25262 753.32952,-414.0547 C 753.32952,-399.97268 755.74356,-385.89065 759.09642,-373.418 L 808.18235,-440.74353 L 842.3816,-388.30469 C 850.56257,-375.83204 842.3816,-365.10288 842.3816,-365.10288 L 799.06256,-305.28778 C 831.78652,-272.56378 875.64199,-256.2018 921.37507,-256.2018"
         style="fill:#ec1b24;fill-rule:evenodd;stroke:none"
         id="path197" />
    </g>
  </g>
</svg>
