<?xml version="1.0" encoding="utf-8"?>
<!-- Generator: Adobe Illustrator 16.0.0, SVG Export Plug-In . SVG Version: 6.00 Build 0)  -->
<!DOCTYPE svg PUBLIC "-//W3C//DTD SVG 1.1//EN" "http://www.w3.org/Graphics/SVG/1.1/DTD/svg11.dtd">
<svg version="1.1" id="Layer_1" xmlns="http://www.w3.org/2000/svg" xmlns:xlink="http://www.w3.org/1999/xlink" x="0px" y="0px"
	 width="345.902px" height="125.532px" viewBox="0 0 345.902 125.532" enable-background="new 0 0 345.902 125.532"
	 xml:space="preserve">
<image overflow="visible" width="2270" height="677" xlink:href="rit_black_no_bar.jpg"  transform="matrix(0.0407 0 0 0.0407 138.1516 95.8064)">
</image>
<rect x="54.876" y="41.108" fill="#F58120" width="6.679" height="20.672"/>
<rect x="67.916" y="41.108" fill="#F58120" width="6.678" height="20.672"/>
<path fill="#F58120" d="M135.069,105.667h-27.5c0,2.537,0,5.537,0,8.033h27.5C135.069,111.204,135.069,108.204,135.069,105.667z"/>
<path fill="#F58120" d="M30.29,105.667c-18.958,0-20.326-7.68-20.326-20.326V69.763c0-10.732,2.778-13.512,13.51-13.512H36.64v0.518
	v14.321l4.468,0.265c11.937,0.701,17.761,6.526,24.503,13.272c7.138,7.14,15.218,15.212,30.894,15.441v0.03h10.224V2.789h-9.543
	c-0.009,0-0.016,0-0.022,0h-0.657V2.8c-16.102,0.224-24.643,8.303-32.187,15.446c-6.479,6.137-12.6,11.935-23.52,13.298
	l-4.158,0.521v14.037v2.116H23.475c-15.101,0-21.543,6.443-21.543,21.545v15.578c0,13.722,2.191,28.359,28.359,28.359h77.277
	c0-2.496,0-5.496,0-8.033H30.29z M46.133,56.769V52.58v-2.29v-4.188v-5.857c11.477-2.568,18.469-9.19,24.713-15.104
	c6.051-5.731,11.43-10.802,20.391-12.356c1.63-0.283,3.375-0.452,5.267-0.486v78.275c-1.921-0.037-3.688-0.219-5.32-0.532
	c-8.328-1.601-13.284-6.547-18.856-12.124C65.951,71.54,58.812,64.398,46.133,62.36V56.769z"/>
<path fill="#F58120" d="M227.154,105.667c0,2.745,0,5.161,0,8.033h15.415c0-2.685,0-5.319,0-8.033H227.154z"/>
<path fill="#F58120" d="M261.646,48.828v8.033h41.923c0-2.794,0-5.202,0-8.033H261.646z"/>
<path fill="#F58120" d="M315.755,48.828h-17.187c0,2.831,0,5.239,0,8.033h17.187c15.959,0,19.229,7.688,19.229,19.229v6.572
	c0,15.909-7.096,23.004-23.004,23.004h-74.412c0,2.714,0,5.349,0,8.033h74.413c20.306,0,31.037-10.733,31.037-31.037V75.95
	C343.017,69.069,342.831,48.828,315.755,48.828z"/>
<polygon points="216.755,15.174 216.755,25.155 239.151,25.155 239.151,87.715 249.13,87.715 249.13,25.155 271.526,25.155 
	271.526,15.174 "/>
<polygon points="151.76,25.155 151.76,15.174 106.727,15.174 106.727,14.961 96.503,14.961 96.503,87.441 96.989,87.441 
	96.989,87.715 151.76,87.715 151.76,77.734 106.727,77.734 106.727,56.435 132.042,56.435 132.042,46.455 106.727,46.455 
	106.727,25.155 "/>
<g>
	<polygon points="222.567,56.375 222.567,46.395 196.659,46.395 196.556,46.337 196.524,46.395 196.521,46.395 196.521,46.401 
		184.499,68.092 172.442,46.337 172.34,46.395 146.405,46.395 146.405,56.375 166.597,56.375 183.804,87.393 183.806,87.389 
		185.192,87.389 185.194,87.393 185.196,87.389 185.21,87.389 185.21,87.365 202.401,56.375 	"/>
</g>
</svg>
